<svg xmlns="http://www.w3.org/2000/svg" viewBox="0 0 24 24" fill="none" stroke="currentColor" stroke-width="1.8" stroke-linejoin="miter">
  <!-- Large L-Block Outer Profile -->
  <path d="M7.5 2 L3.5 4 L3.5 18 L7.5 20 L11.5 22 L15.5 20 L15.5 17 L11.5 15 L11.5 4 Z"/>
  <!-- Large L-Block Internal Edges -->
  <path d="M3.5 4 L7.5 6 L11.5 4 M7.5 6 L7.5 17 M3.5 15 L7.5 17 L11.5 19 L15.5 17 M7.5 17 L7.5 20 M11.5 19 L11.5 22"/>

  <!-- Small Cube Outer Profile -->
  <path d="M17.5 2.5 L14.5 4 L14.5 9.5 L17.5 11 L20.5 9.5 L20.5 4 Z"/>
  <!-- Small Cube Internal Edges -->
  <path d="M14.5 4 L17.5 5.5 L20.5 4 M17.5 5.5 L17.5 11"/>
</svg>
